<svg xmlns="http://www.w3.org/2000/svg" viewBox="0 -0.5 320 320" shape-rendering="crispEdges">
<metadata>Made with Pixels to Svg https://codepen.io/shshaw/pen/XbxvNj</metadata>
<path stroke="#222034" d="M40 125h40M220 125h45M40 126h40M220 126h45M40 127h40M220 127h45M40 128h40M220 128h45M40 129h40M220 129h45M35 130h5M80 130h30M190 130h30M250 130h25M35 131h5M80 131h30M190 131h30M250 131h25M35 132h5M80 132h30M190 132h30M250 132h25M35 133h5M80 133h30M190 133h30M250 133h25M35 134h5M80 134h30M190 134h30M250 134h25M35 135h5M110 135h25M145 135h15M165 135h25M245 135h10M275 135h5M35 136h5M110 136h25M145 136h15M165 136h25M245 136h10M275 136h5M35 137h5M110 137h25M145 137h15M165 137h25M245 137h10M275 137h5M35 138h5M110 138h25M145 138h15M165 138h25M245 138h10M275 138h5M35 139h5M110 139h25M145 139h15M165 139h25M245 139h10M275 139h5M35 140h5M135 140h10M160 140h5M240 140h5M275 140h5M35 141h5M135 141h10M160 141h5M240 141h5M275 141h5M35 142h5M135 142h10M160 142h5M240 142h5M275 142h5M35 143h5M135 143h10M160 143h5M240 143h5M275 143h5M35 144h5M135 144h10M160 144h5M240 144h5M275 144h5M35 145h5M240 145h5M255 145h10M275 145h5M35 146h5M240 146h5M255 146h10M275 146h5M35 147h5M240 147h5M255 147h10M275 147h5M35 148h5M240 148h5M255 148h10M275 148h5M35 149h5M240 149h5M255 149h10M275 149h5M30 150h10M240 150h5M255 150h5M265 150h5M275 150h5M30 151h10M240 151h5M255 151h5M265 151h5M275 151h5M30 152h10M240 152h5M255 152h5M265 152h5M275 152h5M30 153h10M240 153h5M255 153h5M265 153h5M275 153h5M30 154h10M240 154h5M255 154h5M265 154h5M275 154h5M30 155h10M240 155h5M255 155h5M265 155h5M275 155h5M30 156h10M240 156h5M255 156h5M265 156h5M275 156h5M30 157h10M240 157h5M255 157h5M265 157h5M275 157h5M30 158h10M240 158h5M255 158h5M265 158h5M275 158h5M30 159h10M240 159h5M255 159h5M265 159h5M275 159h5M30 160h10M240 160h5M255 160h5M265 160h5M275 160h15M30 161h10M240 161h5M255 161h5M265 161h5M275 161h15M30 162h10M240 162h5M255 162h5M265 162h5M275 162h15M30 163h10M240 163h5M255 163h5M265 163h5M275 163h15M30 164h10M240 164h5M255 164h5M265 164h5M275 164h15M30 165h10M240 165h5M255 165h5M265 165h5M275 165h5M285 165h5M30 166h10M240 166h5M255 166h5M265 166h5M275 166h5M285 166h5M30 167h10M240 167h5M255 167h5M265 167h5M275 167h5M285 167h5M30 168h10M240 168h5M255 168h5M265 168h5M275 168h5M285 168h5M30 169h10M240 169h5M255 169h5M265 169h5M275 169h5M285 169h5M30 170h10M240 170h5M255 170h15M275 170h5M285 170h5M30 171h10M240 171h5M255 171h15M275 171h5M285 171h5M30 172h10M240 172h5M255 172h15M275 172h5M285 172h5M30 173h10M240 173h5M255 173h15M275 173h5M285 173h5M30 174h10M240 174h5M255 174h15M275 174h5M285 174h5M30 175h10M240 175h5M255 175h5M275 175h5M285 175h5M30 176h10M240 176h5M255 176h5M275 176h5M285 176h5M30 177h10M240 177h5M255 177h5M275 177h5M285 177h5M30 178h10M240 178h5M255 178h5M275 178h5M285 178h5M30 179h10M240 179h5M255 179h5M275 179h5M285 179h5M35 180h10M110 180h80M240 180h5M255 180h5M275 180h5M285 180h5M35 181h10M110 181h80M240 181h5M255 181h5M275 181h5M285 181h5M35 182h10M110 182h80M240 182h5M255 182h5M275 182h5M285 182h5M35 183h10M110 183h80M240 183h5M255 183h5M275 183h5M285 183h5M35 184h10M110 184h80M240 184h5M255 184h5M275 184h5M285 184h5M35 185h10M85 185h50M165 185h35M240 185h10M260 185h15M285 185h5M35 186h10M85 186h50M165 186h35M240 186h10M260 186h15M285 186h5M35 187h10M85 187h50M165 187h35M240 187h10M260 187h15M285 187h5M35 188h10M85 188h50M165 188h35M240 188h10M260 188h15M285 188h5M35 189h10M85 189h50M165 189h35M240 189h10M260 189h15M285 189h5M35 190h10M80 190h35M185 190h35M245 190h10M280 190h10M35 191h10M80 191h35M185 191h35M245 191h10M280 191h10M35 192h10M80 192h35M185 192h35M245 192h10M280 192h10M35 193h10M80 193h35M185 193h35M245 193h10M280 193h10M35 194h10M80 194h35M185 194h35M245 194h10M280 194h10M35 195h60M200 195h60M275 195h15M35 196h60M200 196h60M275 196h15M35 197h60M200 197h60M275 197h15M35 198h60M200 198h60M275 198h15M35 199h60M200 199h60M275 199h15M40 200h40M220 200h60M40 201h40M220 201h60M40 202h40M220 202h60M40 203h40M220 203h60M40 204h40M220 204h60" />
<path stroke="#d9a066" d="M40 130h40M220 130h30M40 131h40M220 131h30M40 132h40M220 132h30M40 133h40M220 133h30M40 134h40M220 134h30M40 135h15M80 135h30M190 135h30M255 135h20M40 136h15M80 136h30M190 136h30M255 136h20M40 137h15M80 137h30M190 137h30M255 137h20M40 138h15M80 138h30M190 138h30M255 138h20M40 139h15M80 139h30M190 139h30M255 139h20M40 140h10M110 140h25M165 140h25M245 140h5M270 140h5M40 141h10M110 141h25M165 141h25M245 141h5M270 141h5M40 142h10M110 142h25M165 142h25M245 142h5M270 142h5M40 143h10M110 143h25M165 143h25M245 143h5M270 143h5M40 144h10M110 144h25M165 144h25M245 144h5M270 144h5M40 145h10M155 145h10M245 145h5M40 146h10M155 146h10M245 146h5M40 147h10M155 147h10M245 147h5M40 148h10M155 148h10M245 148h5M40 149h10M155 149h10M245 149h5M40 150h5M155 150h5M245 150h5M260 150h5M40 151h5M155 151h5M245 151h5M260 151h5M40 152h5M155 152h5M245 152h5M260 152h5M40 153h5M155 153h5M245 153h5M260 153h5M40 154h5M155 154h5M245 154h5M260 154h5M40 155h5M155 155h5M245 155h5M260 155h5M40 156h5M155 156h5M245 156h5M260 156h5M40 157h5M155 157h5M245 157h5M260 157h5M40 158h5M155 158h5M245 158h5M260 158h5M40 159h5M155 159h5M245 159h5M260 159h5M155 160h5M245 160h5M260 160h5M155 161h5M245 161h5M260 161h5M155 162h5M245 162h5M260 162h5M155 163h5M245 163h5M260 163h5M155 164h5M245 164h5M260 164h5M150 165h15M245 165h5M150 166h15M245 166h5M150 167h15M245 167h5M150 168h15M245 168h5M150 169h15M245 169h5M40 170h5M130 170h10M155 170h10M245 170h5M40 171h5M130 171h10M155 171h10M245 171h5M40 172h5M130 172h10M155 172h10M245 172h5M40 173h5M130 173h10M155 173h10M245 173h5M40 174h5M130 174h10M155 174h10M245 174h5M40 175h10M110 175h35M160 175h30M245 175h5M260 175h5M40 176h10M110 176h35M160 176h30M245 176h5M260 176h5M40 177h10M110 177h35M160 177h30M245 177h5M260 177h5M40 178h10M110 178h35M160 178h30M245 178h5M260 178h5M40 179h10M110 179h35M160 179h30M245 179h5M260 179h5M45 180h5M95 180h15M190 180h10M245 180h5M260 180h15M45 181h5M95 181h15M190 181h10M245 181h5M260 181h15M45 182h5M95 182h15M190 182h10M245 182h5M260 182h15M45 183h5M95 183h15M190 183h10M245 183h5M260 183h15M45 184h5M95 184h15M190 184h10M245 184h5M260 184h15M45 185h5M80 185h5M200 185h20M250 185h5M45 186h5M80 186h5M200 186h20M250 186h5M45 187h5M80 187h5M200 187h20M250 187h5M45 188h5M80 188h5M200 188h20M250 188h5M45 189h5M80 189h5M200 189h20M250 189h5M45 190h35M220 190h25M45 191h35M220 191h25M45 192h35M220 192h25M45 193h35M220 193h25M45 194h35M220 194h25M260 195h15M260 196h15M260 197h15M260 198h15M260 199h15" />
<path stroke="#eec39a" d="M55 135h25M220 135h25M55 136h25M220 136h25M55 137h25M220 137h25M55 138h25M220 138h25M55 139h25M220 139h25M50 140h60M190 140h50M250 140h20M50 141h60M190 141h50M250 141h20M50 142h60M190 142h50M250 142h20M50 143h60M190 143h50M250 143h20M50 144h60M190 144h50M250 144h20M50 145h85M165 145h75M250 145h5M265 145h10M50 146h85M165 146h75M250 146h5M265 146h10M50 147h85M165 147h75M250 147h5M265 147h10M50 148h85M165 148h75M250 148h5M265 148h10M50 149h85M165 149h75M250 149h5M265 149h10M45 150h85M160 150h80M250 150h5M270 150h5M45 151h85M160 151h80M250 151h5M270 151h5M45 152h85M160 152h80M250 152h5M270 152h5M45 153h85M160 153h80M250 153h5M270 153h5M45 154h85M160 154h80M250 154h5M270 154h5M45 155h85M160 155h80M250 155h5M270 155h5M45 156h85M160 156h80M250 156h5M270 156h5M45 157h85M160 157h80M250 157h5M270 157h5M45 158h85M160 158h80M250 158h5M270 158h5M45 159h85M160 159h80M250 159h5M270 159h5M40 160h90M160 160h80M250 160h5M270 160h5M40 161h90M160 161h80M250 161h5M270 161h5M40 162h90M160 162h80M250 162h5M270 162h5M40 163h90M160 163h80M250 163h5M270 163h5M40 164h90M160 164h80M250 164h5M270 164h5M40 165h95M165 165h75M250 165h5M260 165h5M270 165h5M280 165h5M40 166h95M165 166h75M250 166h5M260 166h5M270 166h5M280 166h5M40 167h95M165 167h75M250 167h5M260 167h5M270 167h5M280 167h5M40 168h95M165 168h75M250 168h5M260 168h5M270 168h5M280 168h5M40 169h95M165 169h75M250 169h5M260 169h5M270 169h5M280 169h5M45 170h85M165 170h75M250 170h5M270 170h5M280 170h5M45 171h85M165 171h75M250 171h5M270 171h5M280 171h5M45 172h85M165 172h75M250 172h5M270 172h5M280 172h5M45 173h85M165 173h75M250 173h5M270 173h5M280 173h5M45 174h85M165 174h75M250 174h5M270 174h5M280 174h5M50 175h60M190 175h50M250 175h5M265 175h10M280 175h5M50 176h60M190 176h50M250 176h5M265 176h10M280 176h5M50 177h60M190 177h50M250 177h5M265 177h10M280 177h5M50 178h60M190 178h50M250 178h5M265 178h10M280 178h5M50 179h60M190 179h50M250 179h5M265 179h10M280 179h5M50 180h45M200 180h40M250 180h5M280 180h5M50 181h45M200 181h40M250 181h5M280 181h5M50 182h45M200 182h40M250 182h5M280 182h5M50 183h45M200 183h40M250 183h5M280 183h5M50 184h45M200 184h40M250 184h5M280 184h5M50 185h30M220 185h20M255 185h5M275 185h10M50 186h30M220 186h20M255 186h5M275 186h10M50 187h30M220 187h20M255 187h5M275 187h10M50 188h30M220 188h20M255 188h5M275 188h10M50 189h30M220 189h20M255 189h5M275 189h10M255 190h25M255 191h25M255 192h25M255 193h25M255 194h25" />
<path stroke="#8f563b" d="M145 140h15M145 141h15M145 142h15M145 143h15M145 144h15M150 145h5M150 146h5M150 147h5M150 148h5M150 149h5M140 170h15M140 171h15M140 172h15M140 173h15M140 174h15M145 175h15M145 176h15M145 177h15M145 178h15M145 179h15" />
<path stroke="#ac3232" d="M135 145h15M135 146h15M135 147h15M135 148h15M135 149h15M130 150h5M145 150h10M130 151h5M145 151h10M130 152h5M145 152h10M130 153h5M145 153h10M130 154h5M145 154h10M130 155h25M130 156h25M130 157h25M130 158h25M130 159h25M130 160h25M130 161h25M130 162h25M130 163h25M130 164h25M135 165h15M135 166h15M135 167h15M135 168h15M135 169h15" />
<path stroke="#d95763" d="M135 150h10M135 151h10M135 152h10M135 153h10M135 154h10" />
</svg>